<svg width="420" height="169" viewBox="0 0 420 169" fill="none" xmlns="http://www.w3.org/2000/svg">
<path d="M68.5 121.5C71.6667 120.833 78.4 120.3 80 123.5C81.6 126.7 70.3333 136.167 64.5 140.5C63.8333 141 62.7 142.4 63.5 144C64.3 145.6 67.1667 144.667 68.5 144C69.8333 143.333 82.5 132.5 82.5 132.5C82.8333 132.167 83.8 131.5 85 131.5C86.2 131.5 87.1667 132.5 87.5 133C87.8333 133.5 86.8333 143 87.5 146C88.1667 149 90 151.321 91.5 151C93 150.679 93 149.5 93 146C93 142.5 90.5 131.5 90.5 131.5C90.5 131.5 89.7 129 90.5 129C91.5 129 92.5 129.5 93.5 130.5L100 137C100 137 101.5 138.5 101.5 136.5C101.5 134 101 128.5 97.5 127C94.7 125.8 90.3333 124.5 88.5 124C87.5 123.833 85.7 123.2 86.5 122C87.3 120.8 90.8333 120.833 92.5 121C93.8333 121.167 96.8 121.2 98 120C99.2 118.8 103.167 114.5 105 112.5" stroke="#046FBC" stroke-width="2"/>
<path d="M81 101.5C81 101.5 84.0864 112.179 79.5 115.5C76.1788 117.905 70.5 116 70.5 116" stroke="#046FBC" stroke-width="2"/>
<path d="M168.731 91.2391C167.057 112.161 157.656 131.712 142.359 146.084C127.062 160.455 106.964 168.62 85.9783 168.987C64.9923 169.354 44.6208 161.898 28.8305 148.07C13.0402 134.242 2.96131 115.033 0.556468 94.1816C-1.84837 73.3307 3.59295 52.331 15.8209 35.2716C28.0489 18.2123 46.1881 6.31435 66.7067 1.89462C87.2253 -2.5251 108.654 0.849747 126.821 11.362C144.988 21.8743 158.593 38.7715 164.985 58.7634L154.499 62.1167C148.939 44.7296 137.107 30.034 121.307 20.8913C105.507 11.7487 86.8702 8.81361 69.025 12.6575C51.1799 16.5013 35.404 26.8491 24.7693 41.6857C14.1345 56.5224 9.40217 74.7859 11.4937 92.9202C13.5852 111.054 22.3508 127.761 36.0838 139.787C49.8168 151.814 67.534 158.298 85.7857 157.979C104.037 157.66 121.517 150.559 134.821 138.06C148.125 125.561 156.3 108.557 157.756 90.361L168.731 91.2391Z" fill="#046FBC"/>
<rect x="157" y="87" width="193" height="11" fill="#046FBC"/>
<path d="M120.938 80V70.9091H124.578C125.247 70.9091 125.805 71.0082 126.251 71.2065C126.698 71.4048 127.034 71.68 127.259 72.0321C127.484 72.3813 127.596 72.7838 127.596 73.2395C127.596 73.5946 127.525 73.9068 127.383 74.1761C127.241 74.4425 127.046 74.6615 126.797 74.8331C126.552 75.0018 126.271 75.1216 125.954 75.1926V75.2814C126.3 75.2962 126.624 75.3939 126.926 75.5744C127.231 75.7549 127.478 76.0079 127.667 76.3335C127.857 76.656 127.952 77.0407 127.952 77.4876C127.952 77.9699 127.832 78.4005 127.592 78.7793C127.355 79.1551 127.005 79.4525 126.54 79.6715C126.075 79.8905 125.503 80 124.822 80H120.938ZM122.86 78.4286H124.427C124.963 78.4286 125.353 78.3265 125.599 78.1223C125.845 77.9152 125.967 77.64 125.967 77.2967C125.967 77.0452 125.907 76.8232 125.785 76.6309C125.664 76.4385 125.491 76.2876 125.266 76.1781C125.044 76.0686 124.779 76.0138 124.471 76.0138H122.86V78.4286ZM122.86 74.7132H124.285C124.548 74.7132 124.782 74.6674 124.986 74.5756C125.194 74.4809 125.356 74.3478 125.475 74.1761C125.596 74.0045 125.657 73.7988 125.657 73.5591C125.657 73.2306 125.54 72.9658 125.306 72.7646C125.075 72.5633 124.747 72.4627 124.321 72.4627H122.86V74.7132ZM132.247 80.1332C131.549 80.1332 130.948 79.9852 130.445 79.6893C129.945 79.3904 129.56 78.9761 129.291 78.4464C129.025 77.9167 128.892 77.3071 128.892 76.6175C128.892 75.9192 129.026 75.3066 129.295 74.7798C129.568 74.2501 129.954 73.8373 130.454 73.5414C130.954 73.2425 131.549 73.093 132.238 73.093C132.833 73.093 133.354 73.2011 133.801 73.4171C134.248 73.6331 134.601 73.9364 134.862 74.3271C135.122 74.7177 135.266 75.1764 135.292 75.7031H133.508C133.458 75.3628 133.325 75.0891 133.108 74.8819C132.895 74.6718 132.616 74.5668 132.27 74.5668C131.977 74.5668 131.721 74.6467 131.502 74.8065C131.286 74.9633 131.117 75.1926 130.996 75.4945C130.874 75.7963 130.814 76.1618 130.814 76.5909C130.814 77.0259 130.873 77.3958 130.991 77.7006C131.112 78.0054 131.283 78.2377 131.502 78.3975C131.721 78.5574 131.977 78.6373 132.27 78.6373C132.486 78.6373 132.679 78.5929 132.851 78.5041C133.026 78.4153 133.169 78.2866 133.282 78.1179C133.397 77.9463 133.472 77.7406 133.508 77.5009H135.292C135.263 78.0217 135.121 78.4804 134.866 78.877C134.615 79.2705 134.267 79.5783 133.823 79.8002C133.379 80.0222 132.854 80.1332 132.247 80.1332ZM139.61 80.1332C138.909 80.1332 138.305 79.9911 137.799 79.707C137.296 79.42 136.909 79.0146 136.636 78.4908C136.364 77.964 136.228 77.3411 136.228 76.622C136.228 75.9206 136.364 75.3051 136.636 74.7754C136.909 74.2457 137.292 73.8329 137.786 73.5369C138.283 73.241 138.866 73.093 139.535 73.093C139.985 73.093 140.403 73.1655 140.791 73.3105C141.182 73.4526 141.522 73.6671 141.812 73.9542C142.105 74.2412 142.333 74.6023 142.496 75.0373C142.658 75.4693 142.74 75.9754 142.74 76.5554V77.0748H136.983V75.9029H140.96C140.96 75.6306 140.901 75.3894 140.782 75.1793C140.664 74.9692 140.5 74.805 140.29 74.6866C140.082 74.5653 139.841 74.5046 139.566 74.5046C139.279 74.5046 139.024 74.5712 138.803 74.7044C138.584 74.8346 138.412 75.0107 138.288 75.2326C138.163 75.4516 138.1 75.6957 138.097 75.965V77.0792C138.097 77.4165 138.159 77.708 138.283 77.9537C138.41 78.1993 138.589 78.3887 138.82 78.5218C139.051 78.655 139.325 78.7216 139.641 78.7216C139.852 78.7216 140.044 78.692 140.219 78.6328C140.393 78.5736 140.543 78.4848 140.667 78.3665C140.791 78.2481 140.886 78.1031 140.951 77.9315L142.7 78.0469C142.611 78.4671 142.429 78.834 142.154 79.1477C141.882 79.4585 141.529 79.7011 141.097 79.8757C140.668 80.0473 140.173 80.1332 139.61 80.1332ZM143.974 82.5568V73.1818H145.838V74.3271H145.923C146.005 74.1436 146.125 73.9571 146.282 73.7678C146.442 73.5754 146.649 73.4156 146.904 73.2884C147.161 73.1581 147.481 73.093 147.862 73.093C148.36 73.093 148.818 73.2232 149.238 73.4837C149.659 73.7411 149.995 74.1303 150.246 74.6511C150.498 75.169 150.623 75.8185 150.623 76.5998C150.623 77.3603 150.501 78.0025 150.255 78.5263C150.012 79.0471 149.681 79.4422 149.261 79.7115C148.843 79.9778 148.376 80.111 147.858 80.111C147.491 80.111 147.179 80.0503 146.921 79.929C146.667 79.8076 146.458 79.6552 146.295 79.4718C146.133 79.2853 146.008 79.0974 145.923 78.908H145.865V82.5568H143.974ZM145.825 76.5909C145.825 76.9963 145.881 77.35 145.994 77.6518C146.106 77.9537 146.269 78.1889 146.482 78.3576C146.695 78.5233 146.954 78.6062 147.259 78.6062C147.566 78.6062 147.827 78.5218 148.04 78.3532C148.253 78.1815 148.414 77.9448 148.524 77.6429C148.636 77.3381 148.692 76.9875 148.692 76.5909C148.692 76.1973 148.638 75.8511 148.528 75.5522C148.419 75.2533 148.257 75.0195 148.044 74.8509C147.831 74.6822 147.569 74.5978 147.259 74.5978C146.951 74.5978 146.69 74.6792 146.477 74.842C146.267 75.0047 146.106 75.2356 145.994 75.5344C145.881 75.8333 145.825 76.1855 145.825 76.5909ZM154.965 80.1332C154.275 80.1332 153.679 79.9867 153.176 79.6937C152.676 79.3978 152.289 78.9864 152.017 78.4597C151.745 77.93 151.609 77.3159 151.609 76.6175C151.609 75.9132 151.745 75.2977 152.017 74.771C152.289 74.2412 152.676 73.8299 153.176 73.5369C153.679 73.241 154.275 73.093 154.965 73.093C155.654 73.093 156.249 73.241 156.749 73.5369C157.252 73.8299 157.64 74.2412 157.912 74.771C158.184 75.2977 158.32 75.9132 158.32 76.6175C158.32 77.3159 158.184 77.93 157.912 78.4597C157.64 78.9864 157.252 79.3978 156.749 79.6937C156.249 79.9867 155.654 80.1332 154.965 80.1332ZM154.973 78.6683C155.287 78.6683 155.549 78.5795 155.759 78.402C155.969 78.2215 156.128 77.9759 156.234 77.6651C156.344 77.3544 156.398 77.0008 156.398 76.6042C156.398 76.2077 156.344 75.854 156.234 75.5433C156.128 75.2326 155.969 74.987 155.759 74.8065C155.549 74.6259 155.287 74.5357 154.973 74.5357C154.657 74.5357 154.391 74.6259 154.174 74.8065C153.961 74.987 153.8 75.2326 153.691 75.5433C153.584 75.854 153.531 76.2077 153.531 76.6042C153.531 77.0008 153.584 77.3544 153.691 77.6651C153.8 77.9759 153.961 78.2215 154.174 78.402C154.391 78.5795 154.657 78.6683 154.973 78.6683ZM162.631 80.1332C161.932 80.1332 161.332 79.9852 160.828 79.6893C160.328 79.3904 159.944 78.9761 159.674 78.4464C159.408 77.9167 159.275 77.3071 159.275 76.6175C159.275 75.9192 159.409 75.3066 159.679 74.7798C159.951 74.2501 160.337 73.8373 160.837 73.5414C161.337 73.2425 161.932 73.093 162.622 73.093C163.217 73.093 163.737 73.2011 164.184 73.4171C164.631 73.6331 164.985 73.9364 165.245 74.3271C165.506 74.7177 165.649 75.1764 165.676 75.7031H163.891C163.841 75.3628 163.708 75.0891 163.492 74.8819C163.279 74.6718 162.999 74.5668 162.653 74.5668C162.36 74.5668 162.104 74.6467 161.885 74.8065C161.669 74.9633 161.5 75.1926 161.379 75.4945C161.258 75.7963 161.197 76.1618 161.197 76.5909C161.197 77.0259 161.256 77.3958 161.374 77.7006C161.496 78.0054 161.666 78.2377 161.885 78.3975C162.104 78.5574 162.36 78.6373 162.653 78.6373C162.869 78.6373 163.063 78.5929 163.234 78.5041C163.409 78.4153 163.552 78.2866 163.665 78.1179C163.78 77.9463 163.856 77.7406 163.891 77.5009H165.676C165.646 78.0217 165.504 78.4804 165.25 78.877C164.998 79.2705 164.65 79.5783 164.206 79.8002C163.763 80.0222 163.237 80.1332 162.631 80.1332ZM169.967 80.1332C169.269 80.1332 168.668 79.9852 168.165 79.6893C167.665 79.3904 167.28 78.9761 167.011 78.4464C166.744 77.9167 166.611 77.3071 166.611 76.6175C166.611 75.9192 166.746 75.3066 167.015 74.7798C167.287 74.2501 167.674 73.8373 168.174 73.5414C168.674 73.2425 169.269 73.093 169.958 73.093C170.553 73.093 171.074 73.2011 171.521 73.4171C171.968 73.6331 172.321 73.9364 172.582 74.3271C172.842 74.7177 172.986 75.1764 173.012 75.7031H171.228C171.177 75.3628 171.044 75.0891 170.828 74.8819C170.615 74.6718 170.335 74.5668 169.989 74.5668C169.696 74.5668 169.44 74.6467 169.221 74.8065C169.005 74.9633 168.837 75.1926 168.715 75.4945C168.594 75.7963 168.533 76.1618 168.533 76.5909C168.533 77.0259 168.592 77.3958 168.711 77.7006C168.832 78.0054 169.002 78.2377 169.221 78.3975C169.44 78.5574 169.696 78.6373 169.989 78.6373C170.205 78.6373 170.399 78.5929 170.571 78.5041C170.745 78.4153 170.889 78.2866 171.001 78.1179C171.117 77.9463 171.192 77.7406 171.228 77.5009H173.012C172.983 78.0217 172.841 78.4804 172.586 78.877C172.334 79.2705 171.987 79.5783 171.543 79.8002C171.099 80.0222 170.574 80.1332 169.967 80.1332ZM176.03 77.5053L178.484 73.1818H180.349V80H178.546V75.6632L176.101 80H174.223V73.1818H176.03V77.5053ZM183.671 77.5053L186.126 73.1818H187.99V80H186.188V75.6632L183.742 80H181.864V73.1818H183.671V77.5053ZM185.802 70.8026H187.12C187.117 71.3411 186.917 71.7747 186.521 72.1032C186.127 72.4316 185.595 72.5959 184.923 72.5959C184.248 72.5959 183.714 72.4316 183.32 72.1032C182.927 71.7747 182.73 71.3411 182.73 70.8026H184.04C184.037 71.0067 184.102 71.1902 184.235 71.353C184.371 71.5157 184.6 71.5971 184.923 71.5971C185.237 71.5971 185.461 71.5172 185.598 71.3574C185.734 71.1976 185.802 71.0127 185.802 70.8026ZM192.587 80.1332C191.888 80.1332 191.288 79.9852 190.784 79.6893C190.284 79.3904 189.9 78.9761 189.63 78.4464C189.364 77.9167 189.231 77.3071 189.231 76.6175C189.231 75.9192 189.366 75.3066 189.635 74.7798C189.907 74.2501 190.293 73.8373 190.793 73.5414C191.293 73.2425 191.888 73.093 192.578 73.093C193.173 73.093 193.693 73.2011 194.14 73.4171C194.587 73.6331 194.941 73.9364 195.201 74.3271C195.462 74.7177 195.605 75.1764 195.632 75.7031H193.847C193.797 75.3628 193.664 75.0891 193.448 74.8819C193.235 74.6718 192.955 74.5668 192.609 74.5668C192.316 74.5668 192.06 74.6467 191.841 74.8065C191.625 74.9633 191.456 75.1926 191.335 75.4945C191.214 75.7963 191.153 76.1618 191.153 76.5909C191.153 77.0259 191.212 77.3958 191.33 77.7006C191.452 78.0054 191.622 78.2377 191.841 78.3975C192.06 78.5574 192.316 78.6373 192.609 78.6373C192.825 78.6373 193.019 78.5929 193.19 78.5041C193.365 78.4153 193.509 78.2866 193.621 78.1179C193.736 77.9463 193.812 77.7406 193.847 77.5009H195.632C195.602 78.0217 195.46 78.4804 195.206 78.877C194.954 79.2705 194.606 79.5783 194.163 79.8002C193.719 80.0222 193.193 80.1332 192.587 80.1332ZM196.843 80V73.1818H198.733V75.8274H199.266L201.122 73.1818H203.341L200.931 76.5643L203.368 80H201.122L199.439 77.5808H198.733V80H196.843ZM206.111 80.1287C205.676 80.1287 205.288 80.0533 204.948 79.9023C204.608 79.7485 204.338 79.5221 204.14 79.2232C203.945 78.9213 203.847 78.5455 203.847 78.0957C203.847 77.7169 203.917 77.3988 204.056 77.1413C204.195 76.8839 204.384 76.6767 204.624 76.5199C204.864 76.363 205.136 76.2447 205.441 76.1648C205.748 76.0849 206.071 76.0286 206.408 75.9961C206.805 75.9547 207.125 75.9162 207.367 75.8807C207.61 75.8422 207.786 75.786 207.895 75.712C208.005 75.638 208.06 75.5285 208.06 75.3835V75.3569C208.06 75.0758 207.971 74.8583 207.793 74.7044C207.619 74.5505 207.37 74.4735 207.048 74.4735C206.707 74.4735 206.436 74.549 206.235 74.6999C206.034 74.8479 205.901 75.0343 205.836 75.2592L204.087 75.1172C204.176 74.7029 204.35 74.3448 204.611 74.043C204.871 73.7382 205.207 73.5044 205.618 73.3416C206.033 73.1759 206.512 73.093 207.056 73.093C207.435 73.093 207.798 73.1374 208.144 73.2262C208.493 73.315 208.802 73.4526 209.072 73.639C209.344 73.8255 209.559 74.0652 209.715 74.3581C209.872 74.6481 209.951 74.9959 209.951 75.4013V80H208.157V79.0545H208.104C207.995 79.2676 207.848 79.4555 207.665 79.6183C207.481 79.7781 207.261 79.9038 207.003 79.9956C206.746 80.0843 206.448 80.1287 206.111 80.1287ZM206.653 78.8237C206.931 78.8237 207.176 78.7689 207.389 78.6594C207.602 78.547 207.77 78.3961 207.891 78.2067C208.012 78.0173 208.073 77.8027 208.073 77.563V76.8395C208.014 76.878 207.932 76.9135 207.829 76.946C207.728 76.9756 207.614 77.0037 207.487 77.0304C207.36 77.054 207.233 77.0762 207.105 77.0969C206.978 77.1147 206.863 77.131 206.759 77.1458C206.537 77.1783 206.343 77.2301 206.178 77.3011C206.012 77.3722 205.883 77.4683 205.791 77.5897C205.7 77.708 205.654 77.856 205.654 78.0336C205.654 78.291 205.747 78.4878 205.933 78.6239C206.123 78.7571 206.363 78.8237 206.653 78.8237ZM215.413 80V74.6644H214.134C213.788 74.6644 213.525 74.7443 213.344 74.9041C213.164 75.0639 213.075 75.2533 213.078 75.4723C213.075 75.6942 213.161 75.8822 213.335 76.036C213.513 76.187 213.773 76.2624 214.117 76.2624H216.043V77.5408H214.117C213.534 77.5408 213.029 77.4521 212.603 77.2745C212.177 77.0969 211.848 76.8498 211.617 76.5332C211.387 76.2136 211.273 75.8422 211.276 75.419C211.273 74.9751 211.387 74.586 211.617 74.2516C211.848 73.9142 212.178 73.6523 212.607 73.4659C213.039 73.2765 213.548 73.1818 214.134 73.1818H217.175V80H215.413ZM211.08 80L212.976 76.4489H214.782L212.891 80H211.08ZM221.537 80V73.1818H223.428V75.8274H223.961L225.816 73.1818H228.036L225.626 76.5643L228.063 80H225.816L224.134 77.5808H223.428V80H221.537ZM231.661 80.1332C230.972 80.1332 230.376 79.9867 229.873 79.6937C229.372 79.3978 228.986 78.9864 228.714 78.4597C228.442 77.93 228.306 77.3159 228.306 76.6175C228.306 75.9132 228.442 75.2977 228.714 74.771C228.986 74.2412 229.372 73.8299 229.873 73.5369C230.376 73.241 230.972 73.093 231.661 73.093C232.351 73.093 232.946 73.241 233.446 73.5369C233.949 73.8299 234.337 74.2412 234.609 74.771C234.881 75.2977 235.017 75.9132 235.017 76.6175C235.017 77.3159 234.881 77.93 234.609 78.4597C234.337 78.9864 233.949 79.3978 233.446 79.6937C232.946 79.9867 232.351 80.1332 231.661 80.1332ZM231.67 78.6683C231.984 78.6683 232.246 78.5795 232.456 78.402C232.666 78.2215 232.824 77.9759 232.931 77.6651C233.04 77.3544 233.095 77.0008 233.095 76.6042C233.095 76.2077 233.04 75.854 232.931 75.5433C232.824 75.2326 232.666 74.987 232.456 74.8065C232.246 74.6259 231.984 74.5357 231.67 74.5357C231.354 74.5357 231.087 74.6259 230.871 74.8065C230.658 74.987 230.497 75.2326 230.387 75.5433C230.281 75.854 230.228 76.2077 230.228 76.6042C230.228 77.0008 230.281 77.3544 230.387 77.6651C230.497 77.9759 230.658 78.2215 230.871 78.402C231.087 78.5795 231.354 78.6683 231.67 78.6683ZM235.847 80L235.838 78.4996H236.065C236.225 78.4996 236.362 78.4612 236.478 78.3842C236.596 78.3043 236.694 78.1756 236.771 77.998C236.848 77.8205 236.908 77.5852 236.953 77.2923C236.997 76.9963 237.027 76.6323 237.041 76.2003L237.152 73.1818H242.337V80H240.535V74.6689H238.852L238.746 76.7507C238.719 77.3219 238.65 77.8131 238.537 78.2244C238.428 78.6358 238.275 78.9731 238.08 79.2365C237.885 79.4969 237.65 79.6893 237.374 79.8136C237.099 79.9379 236.779 80 236.415 80H235.847ZM243.403 80L243.395 78.4996H243.621C243.781 78.4996 243.918 78.4612 244.034 78.3842C244.152 78.3043 244.25 78.1756 244.327 77.998C244.404 77.8205 244.464 77.5852 244.509 77.2923C244.553 76.9963 244.583 76.6323 244.598 76.2003L244.708 73.1818H249.893V80H248.091V74.6689H246.409L246.302 76.7507C246.275 77.3219 246.206 77.8131 246.093 78.2244C245.984 78.6358 245.832 78.9731 245.636 79.2365C245.441 79.4969 245.206 79.6893 244.93 79.8136C244.655 79.9379 244.336 80 243.972 80H243.403ZM254.466 80.1332C253.765 80.1332 253.161 79.9911 252.655 79.707C252.152 79.42 251.765 79.0146 251.492 78.4908C251.22 77.964 251.084 77.3411 251.084 76.622C251.084 75.9206 251.22 75.3051 251.492 74.7754C251.765 74.2457 252.148 73.8329 252.642 73.5369C253.139 73.241 253.722 73.093 254.391 73.093C254.841 73.093 255.259 73.1655 255.647 73.3105C256.038 73.4526 256.378 73.6671 256.668 73.9542C256.961 74.2412 257.189 74.6023 257.352 75.0373C257.514 75.4693 257.596 75.9754 257.596 76.5554V77.0748H251.839V75.9029H255.816C255.816 75.6306 255.757 75.3894 255.638 75.1793C255.52 74.9692 255.356 74.805 255.146 74.6866C254.938 74.5653 254.697 74.5046 254.422 74.5046C254.135 74.5046 253.88 74.5712 253.658 74.7044C253.439 74.8346 253.268 75.0107 253.144 75.2326C253.019 75.4516 252.956 75.6957 252.953 75.965V77.0792C252.953 77.4165 253.015 77.708 253.139 77.9537C253.266 78.1993 253.445 78.3887 253.676 78.5218C253.907 78.655 254.181 78.7216 254.497 78.7216C254.708 78.7216 254.9 78.692 255.074 78.6328C255.249 78.5736 255.399 78.4848 255.523 78.3665C255.647 78.2481 255.742 78.1031 255.807 77.9315L257.556 78.0469C257.467 78.4671 257.285 78.834 257.01 79.1477C256.738 79.4585 256.385 79.7011 255.953 79.8757C255.524 80.0473 255.029 80.1332 254.466 80.1332ZM258.83 80V73.1818H260.721V75.8274H261.253L263.109 73.1818H265.328L262.918 76.5643L265.355 80H263.109L261.427 77.5808H260.721V80H258.83ZM272.116 73.1818V78.695H273.203V82.1928H271.365V80H266.154V73.1818H267.961V78.513H270.331V73.1818H272.116ZM276.176 77.5053L278.631 73.1818H280.495V80H278.693V75.6632L276.247 80H274.369V73.1818H276.176V77.5053ZM286.006 80V74.6644H284.728C284.381 74.6644 284.118 74.7443 283.937 74.9041C283.757 75.0639 283.668 75.2533 283.671 75.4723C283.668 75.6942 283.754 75.8822 283.929 76.036C284.106 76.187 284.367 76.2624 284.71 76.2624H286.636V77.5408H284.71C284.127 77.5408 283.622 77.4521 283.196 77.2745C282.77 77.0969 282.442 76.8498 282.211 76.5332C281.98 76.2136 281.866 75.8422 281.869 75.419C281.866 74.9751 281.98 74.586 282.211 74.2516C282.442 73.9142 282.771 73.6523 283.201 73.4659C283.633 73.2765 284.142 73.1818 284.728 73.1818H287.768V80H286.006ZM281.674 80L283.569 76.4489H285.376L283.485 80H281.674ZM296.161 77.9093L298.008 73.1818H299.446L296.787 80H295.531L292.934 73.1818H294.368L296.161 77.9093ZM293.937 73.1818V80H292.131V73.1818H293.937ZM298.478 80V73.1818H300.263V80H298.478ZM303.532 77.5053L305.987 73.1818H307.851V80H306.049V75.6632L303.603 80H301.725V73.1818H303.532V77.5053ZM309.367 80V73.1818H311.258V75.8274H311.791L313.646 73.1818H315.866L313.455 76.5643L315.892 80H313.646L311.964 77.5808H311.258V80H309.367ZM316.691 82.5568V73.1818H318.555V74.3271H318.64C318.723 74.1436 318.843 73.9571 318.999 73.7678C319.159 73.5754 319.366 73.4156 319.621 73.2884C319.878 73.1581 320.198 73.093 320.58 73.093C321.077 73.093 321.535 73.2232 321.956 73.4837C322.376 73.7411 322.712 74.1303 322.963 74.6511C323.215 75.169 323.341 75.8185 323.341 76.5998C323.341 77.3603 323.218 78.0025 322.972 78.5263C322.73 79.0471 322.398 79.4422 321.978 79.7115C321.561 79.9778 321.093 80.111 320.575 80.111C320.208 80.111 319.896 80.0503 319.639 79.929C319.384 79.8076 319.175 79.6552 319.013 79.4718C318.85 79.2853 318.726 79.0974 318.64 78.908H318.582V82.5568H316.691ZM318.542 76.5909C318.542 76.9963 318.598 77.35 318.711 77.6518C318.823 77.9537 318.986 78.1889 319.199 78.3576C319.412 78.5233 319.671 78.6062 319.976 78.6062C320.284 78.6062 320.544 78.5218 320.757 78.3532C320.97 78.1815 321.132 77.9448 321.241 77.6429C321.353 77.3381 321.41 76.9875 321.41 76.5909C321.41 76.1973 321.355 75.8511 321.245 75.5522C321.136 75.2533 320.975 75.0195 320.762 74.8509C320.549 74.6822 320.287 74.5978 319.976 74.5978C319.668 74.5978 319.408 74.6792 319.195 74.842C318.985 75.0047 318.823 75.2356 318.711 75.5344C318.598 75.8333 318.542 76.1855 318.542 76.5909ZM327.682 80.1332C326.992 80.1332 326.396 79.9867 325.893 79.6937C325.393 79.3978 325.007 78.9864 324.734 78.4597C324.462 77.93 324.326 77.3159 324.326 76.6175C324.326 75.9132 324.462 75.2977 324.734 74.771C325.007 74.2412 325.393 73.8299 325.893 73.5369C326.396 73.241 326.992 73.093 327.682 73.093C328.371 73.093 328.966 73.241 329.466 73.5369C329.969 73.8299 330.357 74.2412 330.629 74.771C330.902 75.2977 331.038 75.9132 331.038 76.6175C331.038 77.3159 330.902 77.93 330.629 78.4597C330.357 78.9864 329.969 79.3978 329.466 79.6937C328.966 79.9867 328.371 80.1332 327.682 80.1332ZM327.691 78.6683C328.004 78.6683 328.266 78.5795 328.476 78.402C328.687 78.2215 328.845 77.9759 328.951 77.6651C329.061 77.3544 329.116 77.0008 329.116 76.6042C329.116 76.2077 329.061 75.854 328.951 75.5433C328.845 75.2326 328.687 74.987 328.476 74.8065C328.266 74.6259 328.004 74.5357 327.691 74.5357C327.374 74.5357 327.108 74.6259 326.892 74.8065C326.679 74.987 326.517 75.2326 326.408 75.5433C326.301 75.854 326.248 76.2077 326.248 76.6042C326.248 77.0008 326.301 77.3544 326.408 77.6651C326.517 77.9759 326.679 78.2215 326.892 78.402C327.108 78.5795 327.374 78.6683 327.691 78.6683ZM335.348 80.1332C334.658 80.1332 334.062 79.9867 333.559 79.6937C333.059 79.3978 332.673 78.9864 332.4 78.4597C332.128 77.93 331.992 77.3159 331.992 76.6175C331.992 75.9132 332.128 75.2977 332.4 74.771C332.673 74.2412 333.059 73.8299 333.559 73.5369C334.062 73.241 334.658 73.093 335.348 73.093C336.037 73.093 336.632 73.241 337.132 73.5369C337.635 73.8299 338.023 74.2412 338.295 74.771C338.568 75.2977 338.704 75.9132 338.704 76.6175C338.704 77.3159 338.568 77.93 338.295 78.4597C338.023 78.9864 337.635 79.3978 337.132 79.6937C336.632 79.9867 336.037 80.1332 335.348 80.1332ZM335.357 78.6683C335.67 78.6683 335.932 78.5795 336.142 78.402C336.353 78.2215 336.511 77.9759 336.617 77.6651C336.727 77.3544 336.782 77.0008 336.782 76.6042C336.782 76.2077 336.727 75.854 336.617 75.5433C336.511 75.2326 336.353 74.987 336.142 74.8065C335.932 74.6259 335.67 74.5357 335.357 74.5357C335.04 74.5357 334.774 74.6259 334.558 74.8065C334.345 74.987 334.183 75.2326 334.074 75.5433C333.967 75.854 333.914 76.2077 333.914 76.6042C333.914 77.0008 333.967 77.3544 334.074 77.6651C334.183 77.9759 334.345 78.2215 334.558 78.402C334.774 78.5795 335.04 78.6683 335.357 78.6683ZM339.933 82.5568V73.1818H341.798V74.3271H341.882C341.965 74.1436 342.085 73.9571 342.242 73.7678C342.401 73.5754 342.609 73.4156 342.863 73.2884C343.12 73.1581 343.44 73.093 343.822 73.093C344.319 73.093 344.778 73.2232 345.198 73.4837C345.618 73.7411 345.954 74.1303 346.206 74.6511C346.457 75.169 346.583 75.8185 346.583 76.5998C346.583 77.3603 346.46 78.0025 346.214 78.5263C345.972 79.0471 345.64 79.4422 345.22 79.7115C344.803 79.9778 344.335 80.111 343.817 80.111C343.45 80.111 343.138 80.0503 342.881 79.929C342.626 79.8076 342.418 79.6552 342.255 79.4718C342.092 79.2853 341.968 79.0974 341.882 78.908H341.824V82.5568H339.933ZM341.784 76.5909C341.784 76.9963 341.841 77.35 341.953 77.6518C342.065 77.9537 342.228 78.1889 342.441 78.3576C342.654 78.5233 342.913 78.6062 343.218 78.6062C343.526 78.6062 343.786 78.5218 343.999 78.3532C344.212 78.1815 344.374 77.9448 344.483 77.6429C344.596 77.3381 344.652 76.9875 344.652 76.5909C344.652 76.1973 344.597 75.8511 344.488 75.5522C344.378 75.2533 344.217 75.0195 344.004 74.8509C343.791 74.6822 343.529 74.5978 343.218 74.5978C342.91 74.5978 342.65 74.6792 342.437 74.842C342.227 75.0047 342.065 75.2356 341.953 75.5344C341.841 75.8333 341.784 76.1855 341.784 76.5909ZM352.513 73.1818V74.6689H349.681V80H347.843V73.1818H352.513ZM355.366 80.1287C354.931 80.1287 354.544 80.0533 354.203 79.9023C353.863 79.7485 353.594 79.5221 353.395 79.2232C353.2 78.9213 353.102 78.5455 353.102 78.0957C353.102 77.7169 353.172 77.3988 353.311 77.1413C353.45 76.8839 353.64 76.6767 353.879 76.5199C354.119 76.363 354.391 76.2447 354.696 76.1648C355.004 76.0849 355.326 76.0286 355.664 75.9961C356.06 75.9547 356.38 75.9162 356.623 75.8807C356.865 75.8422 357.041 75.786 357.151 75.712C357.26 75.638 357.315 75.5285 357.315 75.3835V75.3569C357.315 75.0758 357.226 74.8583 357.049 74.7044C356.874 74.5505 356.626 74.4735 356.303 74.4735C355.963 74.4735 355.692 74.549 355.491 74.6999C355.289 74.8479 355.156 75.0343 355.091 75.2592L353.342 75.1172C353.431 74.7029 353.606 74.3448 353.866 74.043C354.126 73.7382 354.462 73.5044 354.874 73.3416C355.288 73.1759 355.767 73.093 356.312 73.093C356.691 73.093 357.053 73.1374 357.399 73.2262C357.749 73.315 358.058 73.4526 358.327 73.639C358.599 73.8255 358.814 74.0652 358.971 74.3581C359.128 74.6481 359.206 74.9959 359.206 75.4013V80H357.413V79.0545H357.359C357.25 79.2676 357.103 79.4555 356.92 79.6183C356.736 79.7781 356.516 79.9038 356.259 79.9956C356.001 80.0843 355.704 80.1287 355.366 80.1287ZM355.908 78.8237C356.186 78.8237 356.432 78.7689 356.645 78.6594C356.858 78.547 357.025 78.3961 357.146 78.2067C357.268 78.0173 357.328 77.8027 357.328 77.563V76.8395C357.269 76.878 357.188 76.9135 357.084 76.946C356.984 76.9756 356.87 77.0037 356.742 77.0304C356.615 77.054 356.488 77.0762 356.361 77.0969C356.233 77.1147 356.118 77.131 356.014 77.1458C355.792 77.1783 355.599 77.2301 355.433 77.3011C355.267 77.3722 355.138 77.4683 355.047 77.5897C354.955 77.708 354.909 77.856 354.909 78.0336C354.909 78.291 355.002 78.4878 355.189 78.6239C355.378 78.7571 355.618 78.8237 355.908 78.8237ZM365.418 75.8363V77.3233H361.858V75.8363H365.418ZM362.48 73.1818V80H360.673V73.1818H362.48ZM366.603 73.1818V80H364.81V73.1818H366.603ZM369.877 77.5053L372.332 73.1818H374.196V80H372.394V75.6632L369.948 80H368.071V73.1818H369.877V77.5053ZM375.361 78.0691H377.195C377.204 78.294 377.304 78.4715 377.497 78.6017C377.689 78.7319 377.938 78.7971 378.242 78.7971C378.55 78.7971 378.809 78.726 379.019 78.584C379.229 78.439 379.334 78.2318 379.334 77.9625C379.334 77.7968 379.293 77.6533 379.21 77.532C379.127 77.4077 379.012 77.31 378.864 77.239C378.716 77.168 378.544 77.1325 378.349 77.1325H377.368V75.894H378.349C378.642 75.894 378.867 75.8259 379.024 75.6898C379.183 75.5537 379.263 75.3835 379.263 75.1793C379.263 74.9485 379.18 74.7636 379.015 74.6245C378.852 74.4824 378.631 74.4114 378.353 74.4114C378.072 74.4114 377.838 74.475 377.652 74.6023C377.468 74.7266 377.374 74.8893 377.368 75.0906H375.543C375.549 74.6822 375.672 74.3285 375.912 74.0297C376.155 73.7308 376.48 73.4999 376.888 73.3372C377.3 73.1744 377.76 73.093 378.269 73.093C378.825 73.093 379.305 73.1715 379.707 73.3283C380.113 73.4822 380.423 73.7027 380.639 73.9897C380.858 74.2768 380.968 74.6185 380.968 75.0151C380.968 75.3761 380.849 75.678 380.613 75.9206C380.376 76.1633 380.045 76.3364 379.618 76.44V76.511C379.9 76.5288 380.154 76.6042 380.382 76.7374C380.61 76.8706 380.792 77.054 380.928 77.2878C381.064 77.5186 381.132 77.7924 381.132 78.109C381.132 78.5322 381.008 78.8947 380.759 79.1966C380.514 79.4984 380.173 79.7307 379.738 79.8935C379.306 80.0533 378.811 80.1332 378.251 80.1332C377.707 80.1332 377.218 80.0547 376.786 79.8979C376.357 79.7381 376.015 79.5043 375.761 79.1966C375.509 78.8888 375.376 78.513 375.361 78.0691ZM386.322 77.9093L388.169 73.1818H389.607L386.948 80H385.692L383.095 73.1818H384.529L386.322 77.9093ZM384.098 73.1818V80H382.292V73.1818H384.098ZM388.639 80V73.1818H390.424V80H388.639ZM394.967 80.1332C394.278 80.1332 393.681 79.9867 393.178 79.6937C392.678 79.3978 392.292 78.9864 392.02 78.4597C391.747 77.93 391.611 77.3159 391.611 76.6175C391.611 75.9132 391.747 75.2977 392.02 74.771C392.292 74.2412 392.678 73.8299 393.178 73.5369C393.681 73.241 394.278 73.093 394.967 73.093C395.657 73.093 396.251 73.241 396.752 73.5369C397.255 73.8299 397.642 74.2412 397.915 74.771C398.187 75.2977 398.323 75.9132 398.323 76.6175C398.323 77.3159 398.187 77.93 397.915 78.4597C397.642 78.9864 397.255 79.3978 396.752 79.6937C396.251 79.9867 395.657 80.1332 394.967 80.1332ZM394.976 78.6683C395.29 78.6683 395.552 78.5795 395.762 78.402C395.972 78.2215 396.13 77.9759 396.237 77.6651C396.346 77.3544 396.401 77.0008 396.401 76.6042C396.401 76.2077 396.346 75.854 396.237 75.5433C396.13 75.2326 395.972 74.987 395.762 74.8065C395.552 74.6259 395.29 74.5357 394.976 74.5357C394.659 74.5357 394.393 74.6259 394.177 74.8065C393.964 74.987 393.803 75.2326 393.693 75.5433C393.587 75.854 393.533 76.2077 393.533 76.6042C393.533 77.0008 393.587 77.3544 393.693 77.6651C393.803 77.9759 393.964 78.2215 394.177 78.402C394.393 78.5795 394.659 78.6683 394.976 78.6683ZM399.552 80V73.1818H402.46C403.3 73.1818 403.965 73.3416 404.453 73.6612C404.941 73.9808 405.185 74.4351 405.185 75.024C405.185 75.3939 405.048 75.7016 404.773 75.9473C404.497 76.1929 404.116 76.3586 403.627 76.4444C404.036 76.474 404.383 76.5672 404.671 76.7241C404.961 76.878 405.181 77.0777 405.332 77.3233C405.486 77.569 405.563 77.8412 405.563 78.1401C405.563 78.5278 405.459 78.8607 405.252 79.1388C405.048 79.417 404.747 79.6301 404.351 79.7781C403.957 79.926 403.476 80 402.908 80H399.552ZM401.315 78.584H402.908C403.172 78.584 403.377 78.5218 403.525 78.3975C403.676 78.2703 403.752 78.0972 403.752 77.8782C403.752 77.6355 403.676 77.4447 403.525 77.3056C403.377 77.1665 403.172 77.0969 402.908 77.0969H401.315V78.584ZM401.315 75.9872H402.5C402.689 75.9872 402.851 75.9606 402.984 75.9073C403.12 75.8511 403.223 75.7712 403.294 75.6676C403.368 75.564 403.405 75.4412 403.405 75.2992C403.405 75.0891 403.321 74.9248 403.152 74.8065C402.984 74.6881 402.753 74.6289 402.46 74.6289H401.315V75.9872Z" fill="#00166F"/>
<rect x="341" y="87" width="9" height="37" fill="#046FBC"/>
<rect x="341" y="115" width="79" height="9" fill="#046FBC"/>
<rect x="410" y="39" width="10" height="83" fill="#046FBC"/>
<path d="M361.581 55V40.4545H367.404C368.475 40.4545 369.367 40.6132 370.082 40.9304C370.797 41.2476 371.334 41.688 371.694 42.2514C372.054 42.8101 372.234 43.4541 372.234 44.1832C372.234 44.7514 372.12 45.2509 371.893 45.6818C371.666 46.108 371.353 46.4583 370.956 46.733C370.563 47.0028 370.113 47.1946 369.606 47.3082V47.4503C370.16 47.474 370.679 47.6302 371.162 47.919C371.649 48.2079 372.045 48.6127 372.348 49.1335C372.651 49.6496 372.802 50.2652 372.802 50.9801C372.802 51.7519 372.61 52.4408 372.227 53.0469C371.848 53.6482 371.287 54.1241 370.544 54.4744C369.8 54.8248 368.884 55 367.795 55H361.581ZM364.656 52.4858H367.163C368.02 52.4858 368.645 52.3224 369.038 51.9957C369.431 51.6643 369.627 51.224 369.627 50.6747C369.627 50.2723 369.53 49.9171 369.336 49.6094C369.142 49.3016 368.865 49.0601 368.505 48.8849C368.15 48.7098 367.726 48.6222 367.234 48.6222H364.656V52.4858ZM364.656 46.5412H366.936C367.357 46.5412 367.731 46.4678 368.058 46.321C368.389 46.1695 368.65 45.9564 368.839 45.6818C369.033 45.4072 369.13 45.0781 369.13 44.6946C369.13 44.169 368.943 43.7453 368.569 43.4233C368.2 43.1013 367.674 42.9403 366.993 42.9403H364.656V46.5412ZM383.603 55L378.93 48.7997H377.879V55H374.803V40.4545H377.879V46.2642H378.496L383.326 40.4545H387.154L381.479 47.2017L387.417 55H383.603ZM388.963 40.4545H392.756L396.762 50.2273H396.932L400.938 40.4545H404.73V55H401.748V45.5327H401.627L397.863 54.929H395.831L392.067 45.4972H391.946V55H388.963V40.4545Z" fill="#00166F"/>
<path d="M362.841 93.4545L366.357 104.506H366.492L370.015 93.4545H373.424L368.409 108H364.446L359.425 93.4545H362.841ZM375.174 108V93.4545H378.25V99.8679H378.441L383.676 93.4545H387.362L381.964 99.9673L387.426 108H383.747L379.762 102.02L378.25 103.866V108H375.174ZM388.963 93.4545H392.756L396.762 103.227H396.932L400.938 93.4545H404.73V108H401.748V98.5327H401.627L397.863 107.929H395.831L392.067 98.4972H391.946V108H388.963V93.4545Z" fill="#00166F"/>
<path d="M85.9999 99C85.9999 99 85 112.5 89.5001 116C93.9937 119.495 102 110.5 102 110.5" stroke="#046FBC" stroke-width="2"/>
<circle cx="78" cy="85" r="17" fill="#046FBC"/>
<circle cx="114" cy="99" r="17" fill="#046FBC"/>
<circle cx="54" cy="114" r="17" fill="#046FBC"/>
<path d="M121.317 122.317C123.257 120.376 125.468 118.865 127.464 118.117C129.459 117.368 131.076 117.443 131.958 118.325C132.839 119.206 132.914 120.823 132.166 122.818C131.417 124.814 129.906 127.025 127.966 128.966L124.641 125.641L121.317 122.317Z" fill="#046FBC"/>
<path d="M126.966 129.966C125.025 131.906 122.814 133.417 120.818 134.166C118.823 134.914 117.206 134.839 116.325 133.958C115.443 133.076 115.368 131.46 116.117 129.464C116.865 127.468 118.376 125.257 120.317 123.317L123.641 126.641L126.966 129.966Z" fill="#046FBC"/>
<path d="M139.819 102.058C142.343 100.982 144.959 100.405 147.09 100.455C149.22 100.505 150.692 101.178 151.181 102.325C151.67 103.472 151.137 105 149.697 106.572C148.258 108.144 146.032 109.632 143.507 110.708L141.663 106.383L139.819 102.058Z" fill="#046FBC"/>
<path d="M142.206 111.263C139.682 112.339 137.067 112.916 134.936 112.866C132.805 112.816 131.333 112.143 130.844 110.996C130.355 109.849 130.889 108.321 132.328 106.749C133.767 105.177 135.994 103.689 138.518 102.613L140.362 106.938L142.206 111.263Z" fill="#046FBC"/>
<circle cx="142" cy="91" r="4" fill="url(#paint0_radial_2_562)" stroke="#046FBC" stroke-width="2"/>
<ellipse cx="37.1689" cy="86.2313" rx="22.6132" ry="3.5" transform="rotate(-23.1442 37.1689 86.2313)" fill="#046FBC"/>
<ellipse cx="38.8636" cy="68.025" rx="22.6132" ry="3.5" transform="rotate(6.46772 38.8636 68.025)" fill="#046FBC"/>
<ellipse cx="58.8798" cy="54.5866" rx="22.6132" ry="3.5" transform="rotate(-6.46054 58.8798 54.5866)" fill="#046FBC"/>
<circle cx="40" cy="44" r="2" fill="#00166F"/>
<circle cx="45" cy="39" r="2" fill="#00166F"/>
<circle cx="50" cy="35" r="2" fill="#00166F"/>
<circle cx="54" cy="30" r="2" fill="#00166F"/>
<circle cx="58" cy="35" r="2" fill="#00166F"/>
<circle cx="57" cy="25" r="2" fill="#00166F"/>
<circle cx="61" cy="29" r="2" fill="#00166F"/>
<circle cx="65" cy="34" r="2" fill="#00166F"/>
<circle cx="72" cy="37" r="2" fill="#00166F"/>
<circle cx="77" cy="41" r="2" fill="#00166F"/>
<rect x="46" y="134.207" width="15" height="4" rx="2" transform="rotate(-4.614 46 134.207)" fill="#046FBC"/>
<rect x="30.2388" y="127" width="15" height="4" rx="2" transform="rotate(34.0333 30.2388 127)" fill="#046FBC"/>
<path d="M104.573 39.9113C102.372 43.6333 96.0336 43.9577 90.415 40.6359C84.7965 37.3142 82.0256 31.604 84.2261 27.8821C86.4266 24.1601 92.7652 23.8357 98.3838 27.1575C104.002 30.4793 106.773 36.1894 104.573 39.9113ZM85.9653 28.9103C84.141 31.996 86.4382 36.7299 91.0962 39.4838C95.7542 42.2377 101.009 41.9687 102.833 38.8831C104.658 35.7974 102.361 31.0635 97.7026 28.3096C93.0446 25.5557 87.7896 25.8247 85.9653 28.9103Z" fill="#046FBC"/>
<ellipse cx="94.1075" cy="33.8967" rx="5.93299" ry="3.93027" transform="rotate(30.5923 94.1075 33.8967)" fill="#046FBC"/>
<ellipse cx="110.712" cy="46.6573" rx="1.30677" ry="1.15275" transform="rotate(30.5923 110.712 46.6573)" fill="#046FBC"/>
<ellipse cx="109.712" cy="38.6573" rx="1.30677" ry="1.15275" transform="rotate(30.5923 109.712 38.6573)" fill="#046FBC"/>
<ellipse cx="115.712" cy="39.6573" rx="1.30677" ry="1.15275" transform="rotate(30.5923 115.712 39.6573)" fill="#046FBC"/>
<ellipse cx="112.712" cy="42.6573" rx="1.30677" ry="1.15275" transform="rotate(30.5923 112.712 42.6573)" fill="#046FBC"/>
<ellipse cx="118.712" cy="42.6573" rx="1.30677" ry="1.15275" transform="rotate(30.5923 118.712 42.6573)" fill="#046FBC"/>
<ellipse cx="117.712" cy="45.6573" rx="1.30677" ry="1.15275" transform="rotate(30.5923 117.712 45.6573)" fill="#046FBC"/>
<ellipse cx="115.712" cy="49.6573" rx="1.30677" ry="1.15275" transform="rotate(30.5923 115.712 49.6573)" fill="#046FBC"/>
<ellipse cx="121.712" cy="48.6573" rx="1.30677" ry="1.15275" transform="rotate(30.5923 121.712 48.6573)" fill="#046FBC"/>
<ellipse cx="122.712" cy="44.6573" rx="1.30677" ry="1.15275" transform="rotate(30.5923 122.712 44.6573)" fill="#046FBC"/>
<ellipse cx="125.712" cy="49.6573" rx="1.30677" ry="1.15275" transform="rotate(30.5923 125.712 49.6573)" fill="#046FBC"/>
<ellipse cx="120.712" cy="51.6573" rx="1.30677" ry="1.15275" transform="rotate(30.5923 120.712 51.6573)" fill="#046FBC"/>
<ellipse cx="116.514" cy="46.7014" rx="0.775769" ry="0.684333" transform="rotate(-149.408 116.514 46.7014)" fill="#046FBC"/>
<ellipse cx="112.952" cy="46.1078" rx="0.775769" ry="0.684333" transform="rotate(-149.408 112.952 46.1078)" fill="#046FBC"/>
<ellipse cx="114.733" cy="44.3268" rx="0.775769" ry="0.684333" transform="rotate(-149.408 114.733 44.3268)" fill="#046FBC"/>
<ellipse cx="111.171" cy="44.3268" rx="0.775769" ry="0.684333" transform="rotate(-149.408 111.171 44.3268)" fill="#046FBC"/>
<ellipse cx="111.765" cy="42.5458" rx="0.775769" ry="0.684333" transform="rotate(-149.408 111.765 42.5458)" fill="#046FBC"/>
<ellipse cx="112.952" cy="40.1713" rx="0.775769" ry="0.684333" transform="rotate(-149.408 112.952 40.1713)" fill="#046FBC"/>
<ellipse cx="109.391" cy="40.7649" rx="0.775769" ry="0.684333" transform="rotate(-149.408 109.391 40.7649)" fill="#046FBC"/>
<ellipse cx="108.797" cy="43.1395" rx="0.775769" ry="0.684333" transform="rotate(-149.408 108.797 43.1395)" fill="#046FBC"/>
<ellipse cx="107.016" cy="40.1713" rx="0.775769" ry="0.684333" transform="rotate(-149.408 107.016 40.1713)" fill="#046FBC"/>
<ellipse cx="109.984" cy="38.9839" rx="0.775769" ry="0.684333" transform="rotate(-149.408 109.984 38.9839)" fill="#046FBC"/>
<ellipse cx="119.421" cy="44.9634" rx="0.775769" ry="0.684333" transform="rotate(30.5923 119.421 44.9634)" fill="#046FBC"/>
<ellipse cx="122.983" cy="45.557" rx="0.775769" ry="0.684333" transform="rotate(30.5923 122.983 45.557)" fill="#046FBC"/>
<ellipse cx="121.202" cy="47.338" rx="0.775769" ry="0.684333" transform="rotate(30.5923 121.202 47.338)" fill="#046FBC"/>
<ellipse cx="124.764" cy="47.338" rx="0.775769" ry="0.684333" transform="rotate(30.5923 124.764 47.338)" fill="#046FBC"/>
<ellipse cx="124.17" cy="49.119" rx="0.775769" ry="0.684333" transform="rotate(30.5923 124.17 49.119)" fill="#046FBC"/>
<ellipse cx="122.983" cy="51.4935" rx="0.775769" ry="0.684333" transform="rotate(30.5923 122.983 51.4935)" fill="#046FBC"/>
<ellipse cx="126.544" cy="50.8999" rx="0.775769" ry="0.684333" transform="rotate(30.5923 126.544 50.8999)" fill="#046FBC"/>
<ellipse cx="127.138" cy="48.5253" rx="0.775769" ry="0.684333" transform="rotate(30.5923 127.138 48.5253)" fill="#046FBC"/>
<ellipse cx="128.919" cy="51.4935" rx="0.775769" ry="0.684333" transform="rotate(30.5923 128.919 51.4935)" fill="#046FBC"/>
<ellipse cx="125.951" cy="52.6809" rx="0.775769" ry="0.684333" transform="rotate(30.5923 125.951 52.6809)" fill="#046FBC"/>
<ellipse cx="92.9849" cy="35.5574" rx="3.15198" ry="1.10739" transform="rotate(30.5923 92.9849 35.5574)" fill="white"/>
<path d="M135.364 56.4499C132.245 61.7247 122.428 61.6915 113.437 56.3758C104.446 51.0601 99.6855 42.4748 102.804 37.1999C105.923 31.9251 115.739 31.9583 124.731 37.274C133.722 42.5897 138.482 51.1751 135.364 56.4499ZM105.295 38.6726C102.653 43.1403 106.686 50.4121 114.301 54.9145C121.917 59.4169 130.232 59.445 132.873 54.9773C135.514 50.5095 131.482 43.2377 123.867 38.7353C116.251 34.2329 107.936 34.2048 105.295 38.6726Z" fill="#046FBC"/>
<path d="M131.506 54.0062C129.307 57.7247 121.364 57.0961 113.763 52.6023C106.162 48.1086 101.782 41.4513 103.981 37.7328C106.179 34.0144 114.123 34.6429 121.724 39.1367C129.325 43.6305 133.704 50.2878 131.506 54.0062ZM105.474 38.6157C103.514 41.9306 107.418 47.8656 114.195 51.8718C120.971 55.878 128.053 56.4384 130.013 53.1234C131.973 49.8084 128.068 43.8734 121.292 39.8672C114.516 35.861 107.434 35.3007 105.474 38.6157Z" fill="#046FBC"/>
<circle cx="82" cy="73" r="2" fill="white"/>
<circle cx="87" cy="79" r="2" fill="white"/>
<circle cx="89" cy="85" r="2" fill="white"/>
<circle cx="87" cy="91" r="2" fill="white"/>
<circle cx="82" cy="96" r="2" fill="white"/>
<circle cx="75" cy="98" r="2" fill="white"/>
<circle cx="70" cy="94" r="2" fill="white"/>
<circle cx="75" cy="91" r="2" fill="white"/>
<circle cx="81" cy="89" r="2" fill="white"/>
<circle cx="82" cy="83" r="2" fill="white"/>
<circle cx="75" cy="84" r="2" fill="white"/>
<circle cx="70" cy="88" r="2" fill="white"/>
<circle cx="65" cy="86" r="2" fill="white"/>
<circle cx="66" cy="81" r="2" fill="white"/>
<circle cx="71" cy="81" r="2" fill="white"/>
<circle cx="74" cy="77" r="2" fill="white"/>
<circle cx="69" cy="75" r="2" fill="white"/>
<circle cx="75" cy="72" r="2" fill="white"/>
<circle cx="79" cy="79" r="2" fill="white"/>
<circle cx="50.537" cy="102.056" r="2" transform="rotate(-39.6874 50.537 102.056)" fill="white"/>
<circle cx="58.2164" cy="103.48" r="2" transform="rotate(-39.6874 58.2164 103.48)" fill="white"/>
<circle cx="63.587" cy="106.82" r="2" transform="rotate(-39.6874 63.587 106.82)" fill="white"/>
<circle cx="65.8795" cy="112.715" r="2" transform="rotate(-39.6874 65.8795 112.715)" fill="white"/>
<circle cx="65.2247" cy="119.756" r="2" transform="rotate(-39.6874 65.2247 119.756)" fill="white"/>
<circle cx="61.1153" cy="125.765" r="2" transform="rotate(-39.6874 61.1153 125.765)" fill="white"/>
<circle cx="54.7132" cy="125.88" r="2" transform="rotate(-39.6874 54.7132 125.88)" fill="white"/>
<circle cx="56.6451" cy="120.378" r="2" transform="rotate(-39.6874 56.6451 120.378)" fill="white"/>
<circle cx="59.985" cy="115.007" r="2" transform="rotate(-39.6874 59.985 115.007)" fill="white"/>
<circle cx="56.923" cy="109.752" r="2" transform="rotate(-39.6874 56.923 109.752)" fill="white"/>
<circle cx="52.1749" cy="114.991" r="2" transform="rotate(-39.6874 52.1749 114.991)" fill="white"/>
<circle cx="50.8815" cy="121.262" r="2" transform="rotate(-39.6874 50.8815 121.262)" fill="white"/>
<circle cx="45.7567" cy="122.916" r="2" transform="rotate(-39.6874 45.7567 122.916)" fill="white"/>
<circle cx="43.3331" cy="118.43" r="2" transform="rotate(-39.6874 43.3331 118.43)" fill="white"/>
<circle cx="47.181" cy="115.237" r="2" transform="rotate(-39.6874 47.181 115.237)" fill="white"/>
<circle cx="46.9352" cy="110.243" r="2" transform="rotate(-39.6874 46.9352 110.243)" fill="white"/>
<circle cx="41.8102" cy="111.897" r="2" transform="rotate(-39.6874 41.8102 111.897)" fill="white"/>
<circle cx="44.5116" cy="105.757" r="2" transform="rotate(-39.6874 44.5116 105.757)" fill="white"/>
<circle cx="52.0599" cy="108.589" r="2" transform="rotate(-39.6874 52.0599 108.589)" fill="white"/>
<circle cx="118.006" cy="86.0075" r="2" transform="rotate(-6.29871 118.006 86.0075)" fill="white"/>
<circle cx="123.634" cy="91.4227" r="2" transform="rotate(-6.29871 123.634 91.4227)" fill="white"/>
<circle cx="126.28" cy="97.1671" r="2" transform="rotate(-6.29871 126.28 97.1671)" fill="white"/>
<circle cx="124.951" cy="103.35" r="2" transform="rotate(-6.29871 124.951 103.35)" fill="white"/>
<circle cx="120.529" cy="108.869" r="2" transform="rotate(-6.29871 120.529 108.869)" fill="white"/>
<circle cx="113.791" cy="111.625" r="2" transform="rotate(-6.29871 113.791 111.625)" fill="white"/>
<circle cx="108.382" cy="108.197" r="2" transform="rotate(-6.29871 108.382 108.197)" fill="white"/>
<circle cx="113.023" cy="104.667" r="2" transform="rotate(-6.29871 113.023 104.667)" fill="white"/>
<circle cx="118.767" cy="102.021" r="2" transform="rotate(-6.29871 118.767 102.021)" fill="white"/>
<circle cx="119.103" cy="95.9471" r="2" transform="rotate(-6.29871 119.103 95.9471)" fill="white"/>
<circle cx="112.255" cy="97.7091" r="2" transform="rotate(-6.29871 112.255 97.7091)" fill="white"/>
<circle cx="107.724" cy="102.233" r="2" transform="rotate(-6.29871 107.724 102.233)" fill="white"/>
<circle cx="102.535" cy="100.794" r="2" transform="rotate(-6.29871 102.535 100.794)" fill="white"/>
<circle cx="102.98" cy="95.7145" r="2" transform="rotate(-6.29871 102.98 95.7145)" fill="white"/>
<circle cx="107.95" cy="95.166" r="2" transform="rotate(-6.29871 107.95 95.166)" fill="white"/>
<circle cx="110.493" cy="90.861" r="2" transform="rotate(-6.29871 110.493 90.861)" fill="white"/>
<circle cx="105.304" cy="89.4217" r="2" transform="rotate(-6.29871 105.304 89.4217)" fill="white"/>
<circle cx="110.939" cy="85.7814" r="2" transform="rotate(-6.29871 110.939 85.7814)" fill="white"/>
<circle cx="115.682" cy="92.3004" r="2" transform="rotate(-6.29871 115.682 92.3004)" fill="white"/>
<ellipse cx="29.272" cy="88.8172" rx="4" ry="1.5" transform="rotate(-20.7015 29.272 88.8172)" fill="white"/>
<ellipse cx="45.272" cy="83.8172" rx="4" ry="1.5" transform="rotate(-20.7015 45.272 83.8172)" fill="white"/>
<ellipse cx="31.0311" cy="66.2053" rx="2.92978" ry="1.09867" transform="rotate(6.17013 31.0311 66.2053)" fill="white"/>
<ellipse cx="45.1381" cy="68.9212" rx="4" ry="1.5" transform="rotate(6.17013 45.1381 68.9212)" fill="white"/>
<ellipse cx="45.4862" cy="55.5763" rx="2.4199" ry="0.907461" transform="rotate(-8.76351 45.4862 55.5763)" fill="white"/>
<ellipse cx="53.621" cy="55.6528" rx="3.59148" ry="1.34681" transform="rotate(-8.76351 53.621 55.6528)" fill="white"/>
<ellipse cx="67.7548" cy="52.8783" rx="3.59148" ry="1.34681" transform="rotate(-8.76351 67.7548 52.8783)" fill="white"/>
<defs>
<radialGradient id="paint0_radial_2_562" cx="0" cy="0" r="1" gradientUnits="userSpaceOnUse" gradientTransform="translate(142 88.5) rotate(-90) scale(3 3.83071)">
<stop stop-color="white"/>
<stop offset="0.735773"/>
</radialGradient>
</defs>
</svg>
